<svg xmlns="http://www.w3.org/2000/svg" viewBox="0 0 64 64" role="img" aria-labelledby="title desc">
  <title id="title">Diva Slimming and Beauty Lounge favicon</title>
  <desc id="desc">A high-contrast lady figure mark on the Diva brand background.</desc>
  <defs>
    <linearGradient id="bg" x1="0" y1="0" x2="1" y2="1">
      <stop offset="0" stop-color="#fffaf2" />
      <stop offset="1" stop-color="#f5dfbf" />
    </linearGradient>
    <linearGradient id="figure" x1="0" y1="0" x2="1" y2="1">
      <stop offset="0" stop-color="#dba1a1" />
      <stop offset="0.55" stop-color="#c87d83" />
      <stop offset="1" stop-color="#9f7646" />
    </linearGradient>
    <filter id="shadow" x="-30%" y="-30%" width="160%" height="160%">
      <feDropShadow dx="0" dy="2" stdDeviation="1.6" flood-color="#6f4d36" flood-opacity="0.28" />
    </filter>
  </defs>
  <rect width="64" height="64" rx="14" fill="url(#bg)" />
  <rect x="1.5" y="1.5" width="61" height="61" rx="13" fill="none" stroke="#c8a06b" stroke-width="3" />
  <g filter="url(#shadow)">
    <path d="M33 9c-5.9 1.4-10.2 5.7-10.4 10.6-.1 3.2 1.6 5.4 5.1 6.8-8.6 2.7-13.4 9-14 18.9 3.8-5.3 8.3-8 13.6-8.2-4.3 5.7-4.9 11.9-1.8 18.4 1.2-7.8 5.5-13.9 13.1-18.5 6.6-4 9.7-8.9 9.3-14.8-.4-6.4-5.2-11.8-14.9-13.2Z" fill="url(#figure)" />
    <path d="M24.8 16.8c6.8-1.3 12.5.8 17.2 6.2-1.4-7.7-7.1-11.4-17.2-11.1 1.4 1.5 1.4 3.1 0 4.9Z" fill="#e8b1ad" />
    <circle cx="35.4" cy="19.4" r="3.1" fill="#fff1e5" opacity="0.95" />
  </g>
</svg>
