<svg xmlns="http://www.w3.org/2000/svg" width="900" height="560" viewBox="0 0 900 560" role="img" aria-labelledby="title desc">
  <title id="title">Consultation placeholder</title>
  <desc id="desc">Warm salon-inspired placeholder for a Diva consultation image.</desc>
  <defs>
    <linearGradient id="g" x1="0" y1="0" x2="1" y2="1">
      <stop offset="0" stop-color="#fdf8f0"/>
      <stop offset="1" stop-color="#e6d5bd"/>
    </linearGradient>
    <pattern id="p" width="56" height="56" patternUnits="userSpaceOnUse">
      <path d="M0 56 56 0" stroke="#d4b78e" stroke-width="1" opacity=".18"/>
    </pattern>
  </defs>
  <rect width="900" height="560" fill="url(#g)"/>
  <rect width="900" height="560" fill="url(#p)"/>
  <circle cx="695" cy="150" r="116" fill="#f7eee2" stroke="#d7bc94"/>
  <circle cx="690" cy="124" r="46" fill="#c9a36f" opacity=".72"/>
  <path d="M610 298c33-68 131-69 164 0 20 42 21 87 21 126H589c0-39 1-84 21-126Z" fill="#b98d5c" opacity=".58"/>
  <rect x="84" y="122" width="430" height="68" rx="34" fill="#fffaf2" stroke="#dbc6a8"/>
  <rect x="84" y="224" width="348" height="18" rx="9" fill="#c9a36f" opacity=".55"/>
  <rect x="84" y="268" width="430" height="16" rx="8" fill="#8f7f6b" opacity=".24"/>
  <rect x="84" y="302" width="380" height="16" rx="8" fill="#8f7f6b" opacity=".24"/>
  <text x="108" y="164" fill="#2e2a26" font-family="Georgia, serif" font-size="30" font-weight="700">Consultation Image</text>
</svg>
